<svg width="1200" height="337" viewBox="0 0 1200 337" fill="none" xmlns="http://www.w3.org/2000/svg">
<rect x="631.856" y="193" width="149.966" height="70" fill="#F7DF1E"/>
<line y1="2.5" x2="727.107" y2="2.5" stroke="black" stroke-width="5"/>
<line x1="472.893" y1="334.5" x2="1200" y2="334.5" stroke="black" stroke-width="5"/>
<path d="M494.088 117.8V120.95H503.298C502.728 127.07 499.668 131.39 492.618 134.78L494.688 137.9C504.498 133.16 507.348 126.26 507.348 117.8H494.088ZM511.578 114.92V142.55H515.568V114.92H511.578ZM546.286 116.99H540.196V114.74H536.236V116.99H530.086V119.81H546.286V116.99ZM535.126 124.61C535.126 123.59 536.326 123.08 538.216 123.08C540.076 123.08 541.246 123.59 541.246 124.61C541.246 125.6 540.076 126.17 538.216 126.17C536.326 126.17 535.126 125.6 535.126 124.61ZM546.556 129.41C544.516 129.65 542.356 129.83 540.196 129.95V128.63C543.136 128.18 545.026 126.71 545.026 124.61C545.026 122.09 542.266 120.5 538.216 120.5C534.106 120.5 531.346 122.09 531.346 124.61C531.346 126.71 533.236 128.18 536.236 128.63V130.1C533.746 130.16 531.406 130.16 529.306 130.16L529.816 133.13C534.646 133.13 540.976 133.04 546.826 132.05L546.556 129.41ZM533.086 137.81H548.176V142.61H552.166V134.75H533.086V137.81ZM548.176 114.98V133.67H552.166V114.98H548.176ZM573.734 133.7C571.874 133.7 570.494 132.44 570.494 130.34C570.494 128.24 571.874 126.95 573.734 126.95C575.594 126.95 576.944 128.24 576.944 130.31C576.944 132.44 575.594 133.7 573.734 133.7ZM573.734 123.74C569.714 123.74 566.714 126.47 566.714 130.31C566.714 134.21 569.714 136.94 573.734 136.94C577.724 136.94 580.694 134.21 580.694 130.31C580.694 126.47 577.724 123.74 573.734 123.74ZM575.684 115.43H571.724V119.03H565.604V122.18H581.684V119.03H575.684V115.43ZM591.404 125.75H587.444V114.95H583.484V142.58H587.444V129.02H591.404V125.75ZM624.611 122.42H609.401V115.94H605.441V125.57H624.611V122.42ZM609.161 133.76H605.171V142.01H624.761V138.83H609.161V133.76ZM602.351 128.39V131.57H627.371V128.39H602.351ZM639.999 118.37V121.52H646.989C646.479 126.95 644.139 130.94 638.589 134.18L640.899 136.94C648.609 132.44 650.889 126.11 650.889 118.37H639.999ZM658.839 114.95V125.36H656.379V115.67H652.689V141.41H656.379V128.54H658.839V142.58H662.619V114.95H658.839ZM685.687 125.18H680.257V122.42H685.687V125.18ZM689.587 116.15H685.687V119.45H680.257V116.15H676.357V128.27H689.587V116.15ZM683.017 137.57H697.297V130.07H679.057V133.07H693.397V134.75H679.087V142.37H698.077V139.31H683.017V137.57ZM697.297 120.29V114.95H693.337V128.99H697.297V123.5H700.927V120.29H697.297ZM722.284 120.86H727.774V117.59H712.594V120.86H718.324V122.39C718.324 126.95 716.074 132.14 711.544 134.24L713.764 137.39C716.914 135.89 719.134 132.86 720.364 129.26C721.594 132.53 723.754 135.29 726.814 136.7L729.004 133.58C724.474 131.48 722.284 126.59 722.284 122.39V120.86ZM737.794 125.48H733.774V114.95H729.814V142.58H733.774V128.75H737.794V125.48ZM493.608 162.37V165.52H500.598C500.088 170.95 497.748 174.94 492.198 178.18L494.508 180.94C502.218 176.44 504.498 170.11 504.498 162.37H493.608ZM512.448 158.95V169.36H509.988V159.67H506.298V185.41H509.988V172.54H512.448V186.58H516.228V158.95H512.448ZM539.296 169.18H533.866V166.42H539.296V169.18ZM543.196 160.15H539.296V163.45H533.866V160.15H529.966V172.27H543.196V160.15ZM536.626 181.57H550.906V174.07H532.666V177.07H547.006V178.75H532.696V186.37H551.686V183.31H536.626V181.57ZM550.906 164.29V158.95H546.946V172.99H550.906V167.5H554.536V164.29H550.906ZM573.734 177.7C571.874 177.7 570.494 176.44 570.494 174.34C570.494 172.24 571.874 170.95 573.734 170.95C575.594 170.95 576.944 172.24 576.944 174.31C576.944 176.44 575.594 177.7 573.734 177.7ZM573.734 167.74C569.714 167.74 566.714 170.47 566.714 174.31C566.714 178.21 569.714 180.94 573.734 180.94C577.724 180.94 580.694 178.21 580.694 174.31C580.694 170.47 577.724 167.74 573.734 167.74ZM575.684 159.43H571.724V163.03H565.604V166.18H581.684V163.03H575.684V159.43ZM591.404 169.75H587.444V158.95H583.484V186.58H587.444V173.02H591.404V169.75ZM624.611 166.42H609.401V159.94H605.441V169.57H624.611V166.42ZM609.161 177.76H605.171V186.01H624.761V182.83H609.161V177.76ZM602.351 172.39V175.57H627.371V172.39H602.351ZM640.479 161.8V164.95H649.689C649.119 171.07 646.059 175.39 639.009 178.78L641.079 181.9C650.889 177.16 653.739 170.26 653.739 161.8H640.479ZM657.969 158.92V186.55H661.959V158.92H657.969ZM692.677 160.99H686.587V158.74H682.627V160.99H676.477V163.81H692.677V160.99ZM681.517 168.61C681.517 167.59 682.717 167.08 684.607 167.08C686.467 167.08 687.637 167.59 687.637 168.61C687.637 169.6 686.467 170.17 684.607 170.17C682.717 170.17 681.517 169.6 681.517 168.61ZM692.947 173.41C690.907 173.65 688.747 173.83 686.587 173.95V172.63C689.527 172.18 691.417 170.71 691.417 168.61C691.417 166.09 688.657 164.5 684.607 164.5C680.497 164.5 677.737 166.09 677.737 168.61C677.737 170.71 679.627 172.18 682.627 172.63V174.1C680.137 174.16 677.797 174.16 675.697 174.16L676.207 177.13C681.037 177.13 687.367 177.04 693.217 176.05L692.947 173.41ZM679.477 181.81H694.567V186.61H698.557V178.75H679.477V181.81ZM694.567 158.98V177.67H698.557V158.98H694.567ZM722.284 164.86H727.774V161.59H712.594V164.86H718.324V166.39C718.324 170.95 716.074 176.14 711.544 178.24L713.764 181.39C716.914 179.89 719.134 176.86 720.364 173.26C721.594 176.53 723.754 179.29 726.814 180.7L729.004 177.58C724.474 175.48 722.284 170.59 722.284 166.39V164.86ZM737.794 169.48H733.774V158.95H729.814V186.58H733.774V172.75H737.794V169.48ZM503.358 216.48V219.06H507.438V219.9H511.128V203.43H507.438V216.48H503.358ZM499.548 206.55C501.108 206.55 502.068 207.03 502.068 208.02C502.068 209.01 501.108 209.46 499.548 209.46C498.018 209.46 497.028 209.01 497.028 208.02C497.028 207.03 498.018 206.55 499.548 206.55ZM499.548 212.16C503.148 212.16 505.578 210.57 505.578 208.02C505.578 205.47 503.148 203.88 499.548 203.88C495.948 203.88 493.518 205.47 493.518 208.02C493.518 210.57 495.948 212.16 499.548 212.16ZM497.808 219.78H501.558V215.79C503.268 215.64 505.008 215.4 506.568 215.04L506.298 212.43C501.918 213.12 495.978 213.18 492.378 213.18L492.708 216.12C494.148 216.12 495.918 216.12 497.808 216.03V219.78ZM512.538 227.22H500.718V225.57H512.538V227.22ZM512.538 222.66H500.718V220.86H496.788V230.25H516.468V220.86H512.538V222.66ZM512.688 202.95V219.96H516.468V202.95H512.688ZM530.206 206.37V209.52H537.196C536.686 214.95 534.346 218.94 528.796 222.18L531.106 224.94C538.816 220.44 541.096 214.11 541.096 206.37H530.206ZM549.046 202.95V213.36H546.586V203.67H542.896V229.41H546.586V216.54H549.046V230.58H552.826V202.95H549.046ZM575.894 213.18H570.464V210.42H575.894V213.18ZM579.794 204.15H575.894V207.45H570.464V204.15H566.564V216.27H579.794V204.15ZM573.224 225.57H587.504V218.07H569.264V221.07H583.604V222.75H569.294V230.37H588.284V227.31H573.224V225.57ZM587.504 208.29V202.95H583.544V216.99H587.504V211.5H591.134V208.29H587.504ZM612.491 208.86H617.981V205.59H602.801V208.86H608.531V210.39C608.531 214.95 606.281 220.14 601.751 222.24L603.971 225.39C607.121 223.89 609.341 220.86 610.571 217.26C611.801 220.53 613.961 223.29 617.021 224.7L619.211 221.58C614.681 219.48 612.491 214.59 612.491 210.39V208.86ZM628.001 213.48H623.981V202.95H620.021V230.58H623.981V216.75H628.001V213.48ZM658.089 224.01H662.049V202.95H658.089V209.82H654.489V212.97H658.089V215.73H654.489V218.88H658.089V224.01ZM654.189 205.86H648.789V202.86H644.829V205.86H639.039V208.95H654.189V205.86ZM644.049 215.34C644.049 213.84 645.189 212.97 646.809 212.97C648.399 212.97 649.539 213.84 649.539 215.34C649.539 216.9 648.399 217.74 646.809 217.74C645.189 217.74 644.049 216.9 644.049 215.34ZM653.259 215.34C653.259 212.16 650.559 209.94 646.809 209.94C643.029 209.94 640.329 212.16 640.329 215.34C640.329 218.55 643.029 220.8 646.809 220.8C650.559 220.8 653.259 218.55 653.259 215.34ZM647.769 226.95V222.3H643.809V230.1H662.649V226.95H647.769ZM686.227 208.86H691.927V205.59H676.447V208.86H682.207V210.39C682.207 215.1 679.957 220.17 675.337 222.24L677.587 225.39C680.827 223.92 683.047 220.89 684.277 217.29C685.507 220.62 687.697 223.32 690.907 224.7L693.067 221.58C688.447 219.66 686.227 214.89 686.227 210.39V208.86ZM694.477 202.95V230.58H698.437V202.95H694.477ZM716.254 211.2C716.254 209.04 717.724 207.78 719.764 207.78C721.804 207.78 723.304 209.04 723.304 211.2C723.304 213.33 721.804 214.62 719.764 214.62C717.724 214.62 716.254 213.33 716.254 211.2ZM731.284 209.7V212.7H726.874C726.994 212.19 727.054 211.71 727.054 211.2C727.054 210.66 726.994 210.18 726.904 209.7H731.284ZM731.284 215.85V219.15H735.244V202.95H731.284V206.55H725.194C723.874 205.23 721.984 204.42 719.764 204.42C715.684 204.42 712.504 207.27 712.504 211.2C712.504 215.1 715.684 217.95 719.764 217.95C721.924 217.95 723.814 217.17 725.134 215.85H731.284ZM725.884 227.55C722.254 227.55 720.334 226.77 720.334 225.15C720.334 223.53 722.254 222.75 725.884 222.75C729.514 222.75 731.464 223.53 731.464 225.15C731.464 226.77 729.514 227.55 725.884 227.55ZM725.884 219.69C720.064 219.69 716.434 221.7 716.434 225.15C716.434 228.57 720.064 230.61 725.884 230.61C731.734 230.61 735.364 228.57 735.364 225.15C735.364 221.7 731.734 219.69 725.884 219.69Z" fill="black"/>
</svg>
