<svg width="1200" height="505" viewBox="0 0 1200 505" fill="none" xmlns="http://www.w3.org/2000/svg">
<rect x="616" y="299" width="150" height="70" fill="#F7DF1E"/>
<line y1="2.5" x2="727.273" y2="2.5" stroke="black" stroke-width="5"/>
<line x1="472.727" y1="502.5" x2="1200" y2="502.5" stroke="black" stroke-width="5"/>
<path d="M535.107 184.66C528.837 184 525.957 181.15 525.957 178.12V177.31H521.907V178.12C521.907 181.06 518.967 183.97 512.757 184.66L514.137 187.72C518.817 187.12 522.177 185.26 523.917 182.68C525.657 185.29 529.047 187.09 533.757 187.72L535.107 184.66ZM529.527 201.19H518.337V199H529.527V201.19ZM529.527 196H518.337V193.9H514.407V204.25H533.487V193.9H529.527V196ZM525.927 189.55V186.13H521.967V189.55H511.497V192.67H536.457V189.55H525.927ZM570.445 191.2H555.055V188.11H569.605V185.05H555.055V182.14H570.235V178.96H551.035V194.32H570.445V191.2ZM548.095 198.19V201.4H573.115V198.19H548.095ZM603.622 176.92V204.64H607.582V176.92H603.622ZM592.732 178.87C588.562 178.87 585.472 182.65 585.472 188.71C585.472 194.8 588.562 198.61 592.732 198.61C596.902 198.61 599.992 194.8 599.992 188.71C599.992 182.65 596.902 178.87 592.732 178.87ZM592.732 182.44C594.772 182.44 596.182 184.63 596.182 188.71C596.182 192.82 594.772 195.01 592.732 195.01C590.692 195.01 589.282 192.82 589.282 188.71C589.282 184.63 590.692 182.44 592.732 182.44ZM638.24 188.08C633.77 186.79 631.79 183.58 631.79 180.31V177.76H627.77V180.31C627.77 183.67 625.76 187.15 621.14 188.53L623.06 191.65C626.33 190.66 628.58 188.56 629.84 185.95C631.07 188.35 633.2 190.24 636.35 191.17L638.24 188.08ZM640.31 201.1H629.81V198.61H640.31V201.1ZM640.31 195.58H629.81V193H625.88V204.25H644.24V193H640.31V195.58ZM640.25 176.95V191.8H644.24V176.95H640.25ZM664.428 181.69H667.218V187.33C666.288 187.36 665.358 187.39 664.428 187.42V181.69ZM674.148 186.85C673.128 186.97 672.078 187.06 670.998 187.12V181.69H673.188V178.63H658.458V181.69H660.618V187.48C659.628 187.48 658.638 187.48 657.738 187.48L658.128 190.6C662.868 190.6 668.928 190.51 674.358 189.64L674.148 186.85ZM665.358 199.63H679.638V192.22H661.398V195.25H675.738V196.81H661.428V204.37H680.418V201.31H665.358V199.63ZM679.638 182.38V176.98H675.678V191.11H679.638V185.59H683.268V182.38H679.638ZM696.015 179.8V182.95H705.225C704.655 189.07 701.595 193.39 694.545 196.78L696.615 199.9C706.425 195.16 709.275 188.26 709.275 179.8H696.015ZM713.505 176.92V204.55H717.495V176.92H713.505ZM521.637 226.86H527.127V223.59H511.947V226.86H517.677V228.39C517.677 232.95 515.427 238.14 510.897 240.24L513.117 243.39C516.267 241.89 518.487 238.86 519.717 235.26C520.947 238.53 523.107 241.29 526.167 242.7L528.357 239.58C523.827 237.48 521.637 232.59 521.637 228.39V226.86ZM537.147 231.48H533.127V220.95H529.167V248.58H533.127V234.75H537.147V231.48ZM558.415 239.04H552.865V232.92H558.415V239.04ZM558.415 229.83H552.865V223.14H548.935V242.19H562.345V223.14H558.415V229.83ZM573.745 231.24H569.725V220.98H565.765V248.58H569.725V234.54H573.745V231.24ZM608.842 233.97C602.602 232.89 599.182 228.6 599.182 224.55V222.57H594.952V224.55C594.952 228.51 591.502 232.89 585.292 233.97L586.972 237.27C591.772 236.34 595.282 233.64 597.052 230.13C598.822 233.64 602.362 236.31 607.162 237.27L608.842 233.97ZM584.692 242.01V245.22H609.712V242.01H584.692ZM623.33 231.51L623.81 234.72L639.59 233.91C639.41 235.77 639.11 237.78 638.57 240.03L642.47 240.42C643.76 234.42 643.76 230.61 643.76 226.59V223.38H624.11V226.53H639.86V226.59C639.86 228 639.86 229.44 639.8 230.97L623.33 231.51ZM621.32 242.07V245.31H646.28V242.07H621.32ZM674.568 231.96C670.968 232.56 667.758 232.68 663.198 232.71V230.43H671.988V222.21H659.268V225.36H668.088V227.49H659.298V235.89H661.728C667.218 235.89 670.908 235.8 675.018 235.11L674.568 231.96ZM676.908 245.1H666.378V242.88H676.908V245.1ZM676.908 239.85H666.378V237.51H662.448V248.25H680.838V237.51H676.908V239.85ZM676.848 220.95V236.37H680.838V220.95H676.848ZM716.835 235.2H701.445V232.11H715.995V229.05H701.445V226.14H716.625V222.96H697.425V238.32H716.835V235.2ZM694.485 242.19V245.4H719.505V242.19H694.485ZM535.647 277.97C529.407 276.89 525.987 272.6 525.987 268.55V266.57H521.757V268.55C521.757 272.51 518.307 276.89 512.097 277.97L513.777 281.27C518.577 280.34 522.087 277.64 523.857 274.13C525.627 277.64 529.167 280.31 533.967 281.27L535.647 277.97ZM511.497 286.01V289.22H536.517V286.01H511.497ZM553.285 278.03H561.205V274.94H553.285V270.44H562.135V267.26H549.355V286.37H551.605C556.255 286.37 559.795 286.28 563.785 285.65L563.425 282.47C560.035 283.01 557.005 283.16 553.285 283.19V278.03ZM567.325 264.92V274.67H562.585V277.85H567.325V292.64H571.285V264.92H567.325ZM590.302 270.62H599.692V267.41H586.342V286.07H588.772C594.652 286.07 598.162 285.95 601.912 285.23L601.552 281.96C598.222 282.59 595.132 282.74 590.302 282.77V270.62ZM603.622 264.95V292.67H607.582V264.95H603.622ZM639.26 270.77C639.26 274.52 639.26 278.45 638.27 283.73L642.2 284.09C643.22 278.42 643.22 274.64 643.22 270.77V267.5H623.87V270.65H639.26V270.77ZM621.29 285.74V288.98H646.28V285.74H621.29ZM675.948 269.72H661.008V276.95H680.358V274.01H664.908V272.48H679.848V265.37H660.948V268.31H675.948V269.72ZM676.008 289.31H664.908V287.66H676.008V289.31ZM676.008 284.81H664.908V282.62H661.008V292.25H679.938V282.62H676.008V284.81ZM657.888 278.33V281.42H668.358V283.76H672.318V281.42H682.908V278.33H657.888ZM703.365 266.78C699.045 266.78 695.775 269.63 695.775 273.59C695.775 277.58 699.045 280.4 703.365 280.4C707.685 280.4 710.985 277.58 710.985 273.59C710.985 269.63 707.685 266.78 703.365 266.78ZM703.365 270.17C705.495 270.17 707.115 271.43 707.115 273.59C707.115 275.75 705.495 277.01 703.365 277.01C701.235 277.01 699.615 275.75 699.615 273.59C699.615 271.43 701.235 270.17 703.365 270.17ZM713.565 264.92V292.64H717.525V264.92H713.565ZM695.115 287.03C699.885 287.03 706.365 286.97 712.305 285.77L712.065 282.92C706.245 283.79 699.465 283.82 694.605 283.82L695.115 287.03ZM521.637 321.85H516.207V317.92H521.637V321.85ZM525.537 310.93H521.637V314.86H516.207V310.93H512.307V324.97H525.537V310.93ZM519.387 327.28H515.427V336.1H534.237V332.95H519.387V327.28ZM533.247 316.75V308.95H529.287V329.29H533.247V319.99H536.907V316.75H533.247ZM554.185 317.98C554.185 315.16 556.795 313.51 560.575 313.51C564.385 313.51 566.995 315.16 566.995 317.98C566.995 320.8 564.385 322.45 560.575 322.45C556.795 322.45 554.185 320.8 554.185 317.98ZM562.555 330.16V325.48C567.445 324.91 570.895 322.09 570.895 317.98C570.895 313.36 566.485 310.36 560.575 310.36C554.695 310.36 550.285 313.36 550.285 317.98C550.285 322.09 553.735 324.88 558.595 325.48V330.16H548.095V333.37H573.115V330.16H562.555ZM601.642 320.08C597.172 318.79 595.192 315.58 595.192 312.31V309.76H591.172V312.31C591.172 315.67 589.162 319.15 584.542 320.53L586.462 323.65C589.732 322.66 591.982 320.56 593.242 317.95C594.472 320.35 596.602 322.24 599.752 323.17L601.642 320.08ZM603.712 333.1H593.212V330.61H603.712V333.1ZM603.712 327.58H593.212V325H589.282V336.25H607.642V325H603.712V327.58ZM603.652 308.95V323.8H607.642V308.95H603.652ZM623.03 310.54V313.66H631.58C631.01 317.32 627.56 320.35 621.44 321.88L622.94 324.97C631.16 322.87 635.81 317.89 635.81 310.54H623.03ZM629.87 328.63H640.34V333.16H629.87V328.63ZM625.97 336.25H644.24V325.51H625.97V336.25ZM640.25 308.98V324.34H644.24V308.98H640.25ZM666.768 310.78C662.448 310.78 659.178 313.63 659.178 317.59C659.178 321.58 662.448 324.4 666.768 324.4C671.088 324.4 674.388 321.58 674.388 317.59C674.388 313.63 671.088 310.78 666.768 310.78ZM666.768 314.17C668.898 314.17 670.518 315.43 670.518 317.59C670.518 319.75 668.898 321.01 666.768 321.01C664.638 321.01 663.018 319.75 663.018 317.59C663.018 315.43 664.638 314.17 666.768 314.17ZM676.968 308.92V336.64H680.928V308.92H676.968ZM658.518 331.03C663.288 331.03 669.768 330.97 675.708 329.77L675.468 326.92C669.648 327.79 662.868 327.82 658.008 327.82L658.518 331.03ZM717.435 308.95H713.445V328.93H717.435V308.95ZM711.705 322.48C707.235 321.01 705.225 317.62 705.225 314.38V314.05H710.685V310.93H695.655V314.05H701.205V314.38C701.205 317.83 699.195 321.46 694.605 322.9L696.615 325.99C699.825 324.94 702.045 322.81 703.275 320.11C704.535 322.57 706.635 324.55 709.695 325.51L711.705 322.48ZM703.005 332.95V327.13H699.045V336.1H718.125V332.95H703.005Z" fill="black"/>
</svg>
