<svg width="1200" height="321" viewBox="0 0 1200 321" fill="none" xmlns="http://www.w3.org/2000/svg">
<rect x="615" y="207" width="149.966" height="70" fill="#F7DF1E"/>
<line y1="2.5" x2="727.107" y2="2.5" stroke="black" stroke-width="5"/>
<line x1="472.893" y1="318.5" x2="1200" y2="318.5" stroke="black" stroke-width="5"/>
<path d="M534.467 92.66C528.197 92 525.317 89.15 525.317 86.12V85.31H521.267V86.12C521.267 89.06 518.327 91.97 512.117 92.66L513.497 95.72C518.177 95.12 521.537 93.26 523.277 90.68C525.017 93.29 528.407 95.09 533.117 95.72L534.467 92.66ZM528.887 109.19H517.697V107H528.887V109.19ZM528.887 104H517.697V101.9H513.767V112.25H532.847V101.9H528.887V104ZM525.287 97.55V94.13H521.327V97.55H510.857V100.67H535.817V97.55H525.287ZM569.805 99.2H554.415V96.11H568.965V93.05H554.415V90.14H569.595V86.96H550.395V102.32H569.805V99.2ZM547.455 106.19V109.4H572.475V106.19H547.455ZM602.983 84.92V112.64H606.943V84.92H602.983ZM592.093 86.87C587.923 86.87 584.833 90.65 584.833 96.71C584.833 102.8 587.923 106.61 592.093 106.61C596.263 106.61 599.353 102.8 599.353 96.71C599.353 90.65 596.263 86.87 592.093 86.87ZM592.093 90.44C594.133 90.44 595.543 92.63 595.543 96.71C595.543 100.82 594.133 103.01 592.093 103.01C590.053 103.01 588.643 100.82 588.643 96.71C588.643 92.63 590.053 90.44 592.093 90.44ZM637.6 96.08C633.13 94.79 631.15 91.58 631.15 88.31V85.76H627.13V88.31C627.13 91.67 625.12 95.15 620.5 96.53L622.42 99.65C625.69 98.66 627.94 96.56 629.2 93.95C630.43 96.35 632.56 98.24 635.71 99.17L637.6 96.08ZM639.67 109.1H629.17V106.61H639.67V109.1ZM639.67 103.58H629.17V101H625.24V112.25H643.6V101H639.67V103.58ZM639.61 84.95V99.8H643.6V84.95H639.61ZM663.788 89.69H666.578V95.33C665.648 95.36 664.718 95.39 663.788 95.42V89.69ZM673.508 94.85C672.488 94.97 671.438 95.06 670.358 95.12V89.69H672.548V86.63H657.818V89.69H659.978V95.48C658.988 95.48 657.998 95.48 657.098 95.48L657.488 98.6C662.228 98.6 668.288 98.51 673.718 97.64L673.508 94.85ZM664.718 107.63H678.998V100.22H660.758V103.25H675.098V104.81H660.788V112.37H679.778V109.31H664.718V107.63ZM678.998 90.38V84.98H675.038V99.11H678.998V93.59H682.628V90.38H678.998ZM695.376 87.8V90.95H704.586C704.016 97.07 700.956 101.39 693.906 104.78L695.976 107.9C705.786 103.16 708.636 96.26 708.636 87.8H695.376ZM712.866 84.92V112.55H716.856V84.92H712.866ZM520.997 134.86H526.487V131.59H511.307V134.86H517.037V136.39C517.037 140.95 514.787 146.14 510.257 148.24L512.477 151.39C515.627 149.89 517.847 146.86 519.077 143.26C520.307 146.53 522.467 149.29 525.527 150.7L527.717 147.58C523.187 145.48 520.997 140.59 520.997 136.39V134.86ZM536.507 139.48H532.487V128.95H528.527V156.58H532.487V142.75H536.507V139.48ZM557.775 147.04H552.225V140.92H557.775V147.04ZM557.775 137.83H552.225V131.14H548.295V150.19H561.705V131.14H557.775V137.83ZM573.105 139.24H569.085V128.98H565.125V156.58H569.085V142.54H573.105V139.24ZM608.203 141.97C601.963 140.89 598.543 136.6 598.543 132.55V130.57H594.313V132.55C594.313 136.51 590.863 140.89 584.653 141.97L586.333 145.27C591.133 144.34 594.643 141.64 596.413 138.13C598.183 141.64 601.723 144.31 606.523 145.27L608.203 141.97ZM584.053 150.01V153.22H609.073V150.01H584.053ZM622.69 139.51L623.17 142.72L638.95 141.91C638.77 143.77 638.47 145.78 637.93 148.03L641.83 148.42C643.12 142.42 643.12 138.61 643.12 134.59V131.38H623.47V134.53H639.22V134.59C639.22 136 639.22 137.44 639.16 138.97L622.69 139.51ZM620.68 150.07V153.31H645.64V150.07H620.68ZM673.928 139.96C670.328 140.56 667.118 140.68 662.558 140.71V138.43H671.348V130.21H658.628V133.36H667.448V135.49H658.658V143.89H661.088C666.578 143.89 670.268 143.8 674.378 143.11L673.928 139.96ZM676.268 153.1H665.738V150.88H676.268V153.1ZM676.268 147.85H665.738V145.51H661.808V156.25H680.198V145.51H676.268V147.85ZM676.208 128.95V144.37H680.198V128.95H676.208ZM716.196 143.2H700.806V140.11H715.356V137.05H700.806V134.14H715.986V130.96H696.786V146.32H716.196V143.2ZM693.846 150.19V153.4H718.866V150.19H693.846ZM535.007 185.97C528.767 184.89 525.347 180.6 525.347 176.55V174.57H521.117V176.55C521.117 180.51 517.667 184.89 511.457 185.97L513.137 189.27C517.937 188.34 521.447 185.64 523.217 182.13C524.987 185.64 528.527 188.31 533.327 189.27L535.007 185.97ZM510.857 194.01V197.22H535.877V194.01H510.857ZM552.645 186.03H560.565V182.94H552.645V178.44H561.495V175.26H548.715V194.37H550.965C555.615 194.37 559.155 194.28 563.145 193.65L562.785 190.47C559.395 191.01 556.365 191.16 552.645 191.19V186.03ZM566.685 172.92V182.67H561.945V185.85H566.685V200.64H570.645V172.92H566.685ZM589.663 178.62H599.053V175.41H585.703V194.07H588.133C594.013 194.07 597.523 193.95 601.273 193.23L600.913 189.96C597.583 190.59 594.493 190.74 589.663 190.77V178.62ZM602.983 172.95V200.67H606.943V172.95H602.983ZM638.62 178.77C638.62 182.52 638.62 186.45 637.63 191.73L641.56 192.09C642.58 186.42 642.58 182.64 642.58 178.77V175.5H623.23V178.65H638.62V178.77ZM620.65 193.74V196.98H645.64V193.74H620.65ZM675.308 177.72H660.368V184.95H679.718V182.01H664.268V180.48H679.208V173.37H660.308V176.31H675.308V177.72ZM675.368 197.31H664.268V195.66H675.368V197.31ZM675.368 192.81H664.268V190.62H660.368V200.25H679.298V190.62H675.368V192.81ZM657.248 186.33V189.42H667.718V191.76H671.678V189.42H682.268V186.33H657.248ZM702.726 174.78C698.406 174.78 695.136 177.63 695.136 181.59C695.136 185.58 698.406 188.4 702.726 188.4C707.046 188.4 710.346 185.58 710.346 181.59C710.346 177.63 707.046 174.78 702.726 174.78ZM702.726 178.17C704.856 178.17 706.476 179.43 706.476 181.59C706.476 183.75 704.856 185.01 702.726 185.01C700.596 185.01 698.976 183.75 698.976 181.59C698.976 179.43 700.596 178.17 702.726 178.17ZM712.926 172.92V200.64H716.886V172.92H712.926ZM694.476 195.03C699.246 195.03 705.726 194.97 711.666 193.77L711.426 190.92C705.606 191.79 698.826 191.82 693.966 191.82L694.476 195.03ZM520.997 229.85H515.567V225.92H520.997V229.85ZM524.897 218.93H520.997V222.86H515.567V218.93H511.667V232.97H524.897V218.93ZM518.747 235.28H514.787V244.1H533.597V240.95H518.747V235.28ZM532.607 224.75V216.95H528.647V237.29H532.607V227.99H536.267V224.75H532.607ZM553.545 225.98C553.545 223.16 556.155 221.51 559.935 221.51C563.745 221.51 566.355 223.16 566.355 225.98C566.355 228.8 563.745 230.45 559.935 230.45C556.155 230.45 553.545 228.8 553.545 225.98ZM561.915 238.16V233.48C566.805 232.91 570.255 230.09 570.255 225.98C570.255 221.36 565.845 218.36 559.935 218.36C554.055 218.36 549.645 221.36 549.645 225.98C549.645 230.09 553.095 232.88 557.955 233.48V238.16H547.455V241.37H572.475V238.16H561.915ZM601.003 228.08C596.533 226.79 594.553 223.58 594.553 220.31V217.76H590.533V220.31C590.533 223.67 588.523 227.15 583.903 228.53L585.823 231.65C589.093 230.66 591.343 228.56 592.603 225.95C593.833 228.35 595.963 230.24 599.113 231.17L601.003 228.08ZM603.073 241.1H592.573V238.61H603.073V241.1ZM603.073 235.58H592.573V233H588.643V244.25H607.003V233H603.073V235.58ZM603.013 216.95V231.8H607.003V216.95H603.013ZM622.39 218.54V221.66H630.94C630.37 225.32 626.92 228.35 620.8 229.88L622.3 232.97C630.52 230.87 635.17 225.89 635.17 218.54H622.39ZM629.23 236.63H639.7V241.16H629.23V236.63ZM625.33 244.25H643.6V233.51H625.33V244.25ZM639.61 216.98V232.34H643.6V216.98H639.61ZM666.128 218.78C661.808 218.78 658.538 221.63 658.538 225.59C658.538 229.58 661.808 232.4 666.128 232.4C670.448 232.4 673.748 229.58 673.748 225.59C673.748 221.63 670.448 218.78 666.128 218.78ZM666.128 222.17C668.258 222.17 669.878 223.43 669.878 225.59C669.878 227.75 668.258 229.01 666.128 229.01C663.998 229.01 662.378 227.75 662.378 225.59C662.378 223.43 663.998 222.17 666.128 222.17ZM676.328 216.92V244.64H680.288V216.92H676.328ZM657.878 239.03C662.648 239.03 669.128 238.97 675.068 237.77L674.828 234.92C669.008 235.79 662.228 235.82 657.368 235.82L657.878 239.03ZM716.796 216.95H712.806V236.93H716.796V216.95ZM711.066 230.48C706.596 229.01 704.586 225.62 704.586 222.38V222.05H710.046V218.93H695.016V222.05H700.566V222.38C700.566 225.83 698.556 229.46 693.966 230.9L695.976 233.99C699.186 232.94 701.406 230.81 702.636 228.11C703.896 230.57 705.996 232.55 709.056 233.51L711.066 230.48ZM702.366 240.95V235.13H698.406V244.1H717.486V240.95H702.366Z" fill="black"/>
</svg>
